/* XPM */
static char *EJiIYi_T[] = {
/* columns rows colors chars-per-pixel */
"64 64 124 2",
"   c #009600",
".  c #009800",
"X  c #0A9A0A",
"o  c #139D13",
"O  c #1B9D1B",
"+  c #279D27",
"@  c #25A025",
"#  c #27CD27",
"$  c #2ACD2A",
"%  c #30CE2F",
"&  c #33CB33",
"*  c #3CC93C",
"=  c #4C9A4C",
"-  c #5B9A5B",
";  c #5BA25B",
":  c #5EBC5E",
">  c #759C75",
",  c #7A9E7A",
"<  c #64AB64",
"1  c #6DA46D",
"2  c #69AE69",
"3  c #64B164",
"4  c #64BC63",
"5  c #6AB16B",
"6  c #69BC69",
"7  c #70AE70",
"8  c #7CA37C",
"9  c #75B475",
"0  c #73BA73",
"q  c #7DB37D",
"w  c #7ABA7A",
"e  c #44C644",
"r  c #42C942",
"t  c #4AC64A",
"y  c #4AC84B",
"u  c #52C352",
"i  c #52C852",
"p  c #5BC25B",
"a  c #5BC85B",
"s  c #61C362",
"d  c #64C864",
"f  c #6CC26C",
"g  c #76C176",
"h  c #70C870",
"j  c #7DC37D",
"k  c #7FC580",
"l  c #939C94",
"z  c #9B9B9B",
"x  c #A09F9F",
"c  c #81A682",
"v  c #83AA84",
"b  c #87AB88",
"n  c #8CAC8C",
"m  c #82B681",
"M  c #84BF84",
"N  c #89B189",
"B  c #87B888",
"V  c #8BBB8B",
"C  c #95A595",
"Z  c #96AD96",
"A  c #9DA39D",
"S  c #9DA99D",
"D  c #91B391",
"F  c #98B097",
"G  c #95BA96",
"H  c #9FB59F",
"J  c #9CBD9C",
"K  c #9F9FA0",
"L  c #A29CA2",
"P  c #9FA0A0",
"I  c #A3A3A3",
"U  c #A8A7A7",
"Y  c #A3ABA4",
"T  c #A7A4A8",
"R  c #AAA5AA",
"E  c #A7A8A8",
"W  c #ABABAB",
"Q  c #B0AAAF",
"!  c #A4B3A4",
"~  c #A0BBA0",
"^  c #ABB3AB",
"/  c #ACBAAC",
"(  c #B0B8AF",
")  c #AFAEB0",
"_  c #B3ACB3",
"`  c #B8AFB8",
"'  c #AFB0B0",
"]  c #B3B3B3",
"[  c #B8B7B7",
"{  c #B5BAB5",
"}  c #B8B8B7",
"|  c #B7B7B8",
" . c #BAB5BA",
".. c #B7B8B8",
"X. c #BBBBBB",
"o. c #C0BFBF",
"O. c #80C180",
"+. c #8BC28C",
"@. c #91C291",
"#. c #98C099",
"$. c #A2C3A2",
"%. c #ACC0AC",
"&. c #B7C5B7",
"*. c #B8C0B7",
"=. c #BCC3BC",
"-. c #C0C0BF",
";. c #BFBFC0",
":. c #C0B7C0",
">. c #C2BDC2",
",. c #C8BCC7",
"<. c #C8BFC8",
"1. c #BFC0C0",
"2. c #C3C3C3",
"3. c #C8C7C7",
"4. c #C5C8C5",
"5. c #C8C8C7",
"6. c #C7C4C8",
"7. c #C9C5C9",
"8. c #C7C8C8",
"9. c #CACACA",
"0. c #D1C5D1",
"q. c #D4CAD4",
"w. c #D9CED9",
"e. c None",
/* pixels */
"e.e.e.e.z z z z z z L x L L I I I I E E E E W W W W Q ' ' ' ] ] ] [ [ [ [ } } X.X.X.;.X.2.2.-.2.2.2.2.2.2.8.8.9.5.9.9.9.e.e.e.e.",
"e.e.e.z z z z z z x z x z I I P I E I E E E E E W W W W ' ' ] ' ] ] ] [ [ { } X.X.X.X.2.2.X.2.o.2.2.2.2.6.5.8.7.9.5.9.9.9.e.e.e.",
"e.e.z z z z z z z z L x P P I P I I I U E E W W W W ^ Q ' ' ' ] ] [ ] [ } } X.X.X.=.X.X.X.>.2.2.2.2.2.5.5.5.5.5.5.9.9.9.9.q.e.e.",
"e.z l z z z z z L x z x P P I I I I U E E R E W W W W ' ' Q ] ] ] [ [ [ } } } X.X.X.>.2.2.=.o.2.2.2.2.2.8.8.5.9.5.9.9.9.9.9.9.e.",
"z z z z z z z z z x z x P I P I I I E I U E W W W W ^ Q ^ ' ' ] ] ] | } }  . .X. .=.X.X.X.2.2.-.2.2.2.8.8.8.8.7.9.9.9.9.9.9.9.q.",
"z l l z z z z z z z x x P I I I Y U I E I I W W W ' Q ' ] ] ` [ | |  . .X.X.X.X.>.=.>.=.1.1.o.2.2.2.2.5.2.5.7.8.9.9.9.9.9.9.9.9.",
"z l z l z z z z I z x A x I P I I I I U W W Y P Y Y Y Y Y ! ! W ^ ^ / ^ / ( ( ( { X.X.;.>.-.2.>.2.2.2.2.8.5.8.8.9.9.9.9.9.9.9.9.",
"z z z z z z z z z z x P x x I I I I U I U I + X X X X X X X X X X X X X X X X X @ { >.=.1.-.=.2.2.2.2.8.5.8.8.8.9.9.9.9.9.q.9.9.",
"z l z z z z z z I z L A L A I I I E I U W A X . . . . . . . . . . . . . . . .     / 2.X.X.2.2.2.-.2.2.4.4.4.4.9.9.9.9.9.9.9.9.9.",
"l z z l z z x z x z z x P I I I I I E U E S o . . . . . . . . . . . . . . . . . X ] >.=.-.1.-.2.2.2.4.4.4.4.9.4.9.4.9.9.9.9.9.9.",
"z z z z z z z x z z L I K I x I I I I U R I X . . . . . . . . . . . . . . . . . X / >.X.2.1.2.2.2.2.2.4.4.9.4.4.9.9.9.9.9.9.q.9.",
"z z z z z z z z z I A z P z I I I I U I W S X . . . . . . . . . . . . . . . . . X / 2.X.X.2.X.X.2.2.4.4.4.4.9.9.4.9.9.9.9.9.9.9.",
"l l l z z z z z z P z x I I L I I I E U W S X . . . . . . . . . . . . . . . . . X / >.X.2.X.2.2.2.2.2.4.4.9.9.9.9.9.9.9.9.9.9.9.",
"z z z z z z z z x z P x z I A I I I U U E A o . . . . . . . . . . . . . . . . . X / >.o.X.2.-.2.2.2.2.2.4.9.-.9.9.9.9.9.9.9.w.9.",
"z z z z z z z z z x z I P I I I I E I I E I X . . . . . . . . . . . . . . . . . X / >.=.2.X.2.1.6.2.2.2.9.-.9.9.9.9.9.9.9.9.9.9.",
"z l z z z z z z x z x x P z I I I I E R E S o . . . . . . . . . . . . . . . . . X / 2.X.X.2.2.2.2.2.5.2.9.-.9.9.9.9.9.9.9.9.9.9.",
"l z z l z z z z z A L z I I I P I I I E R A X . . . . . . . . . . . . . . . . . . / >.X.-.1.>.2.2.2.2.2.6.5.8.7.9.9.9.9.9.9.9.9.",
"l z z z z z z z z z z I z P I P I I U E W Y O . . . . . . . .   . . . . . . . . O { >.2.1.>.=.;.2.2.2.2.8.2.8.8.8.9.9.9.9.q.9.9.",
"z l z z z z z z z I A z I I I I I I E I E E C 8 8 c c c v b v b b n b b N b N N ~ ;.>.X.2.X.2.2.2.2.2.5.5.5.8.5.5.9.9.9.9.9.q.9.",
"z z z z z z z z z z L L I z I I I I I E E E W _ _ _ ] ` ! ~ `  . .J { :.X.>.X.>.>.X.X.=.X.2.X.2.2.2.2.2.5.8.7.8.9.7.5.9.9.9.9.9.",
"l z z z z z z z z P x A z I L P U I U U E E E R W W W _ p & 0 _ f $ f  . .}  .X.X.X.=.>.2.X.2.2.2.2.5.2.5.5.8.8.9.9.9.9.9.q.9.9.",
"z z l z z z z z z I z I I A I I I I I I U E W W W W _ B & $ f  .s $ & V X. .X.X.X.X.=.X.-.X.2.1.4.2.2.2.8.2.8.8.9.9.9.9.9.9.9.9.",
"l l z z z z z z K z I z x I I I I Y U U I U U W W ) Y t $ y ^ ` / y $ r / X. .X.X.X.;.X.1.2.X.2.2.2.4.2.3.8.5.9.9.9.9.9.9.9.9.q.",
"z z z z z z z z z z z I z x I I Y I I I W U U W W _ 6 $ & V ] _  .G & $ a  .X.X.X.X.X.2.X.2.2.2.2.2.2.2.2.5.5.5.9.9.9.9.9.9.9.9.",
"z l z z z z z z z z z z K L L K I I I U I W W W W Z & $ 4 _ ] ] _  .g $ $ k :. .X.;.;.X.2.=.=.>.-.2.4.4.4.4.4.9.9.9.9.9.9.9.9.9.",
"z z z z z z z z z z z z L L L I I I I I I W U W W u $ * H ` ^ ] ] ] ] p $ * ~ >.X.X.X.>.o.>.2.-.2.2.4.4.4.4.9.4.9.9.9.9.9.9.9.9.",
"z z l z z z z z z z z z L L L L I I E U I W W W w $ $ w ` ^ ^ ] ] ]  .~ * $ u { X.X.>.X.X.2.=.2.2.2.4.4.4.4.4.9.9.9.9.9.9.9.9.9.",
"z l z z z z z z L z z L z z L L I I E I I W R Y r $ u W W ] _ _ ] | |  .O.$ $ g >.X.=.o.2.-.>.2.2.2.-.4.4.9.9.4.9.4.9.9.9.w.9.9.",
"z z z z z z z z z z L z L L L L I U I W I W W 4 $ * V _ _ ^ ^ ] ] ] ] |  .d $ & #.>.X.X.X.2.X.2.2.2.2.2.9.9.4.9.9.9.9.9.9.9.9.9.",
"l l z z z z z z z L z L z L L L I I U I E R N & $ 4 _ _ ^ _ ] ' ] ] [ [  ./ r $ y { >.=.2.X.2.2.-.4.2.5.1.9.4.4.9.9.9.9.9.9.9.9.",
"z l z z z z z z z z L z L z L L I I U I E I t $ r Y _ W _ ^ ] ] ] [ | |  .:.@.& $ f >.>.X.2.2.1.2.2.4.4.1.9.4.9.9.9.9.9.9.9.9.w.",
"z z l z l z z z z L z L L L L L I I I W Q 9 $ & m _ W ^ W ] _ ] ] ] ] } }  .X.f $ $ +.6.X.-.1.2.1.2.4.2.9.1.9.9.9.9.9.9.9.9.9.9.",
"l z z z z z z A z z z x P P I I I T T T Z * $ u W W Q ^ ' ' ' ] ] ] ] } } }  .{ y $ * / 6.o.2.2.2.2.2.2.2.8.5.8.7.9.9.9.9.q.9.9.",
"z z l z z z z z P x P x P P P P I I T T : $ * F Q ^ Q Q ' ' ' ] ] ] ] [ } } X.>.J * $ a o.2.X.2.2.2.4.2.5.8.5.8.9.5.9.9.9.9.9.9.",
"l z z z z z z x z P x x P I I I I I U m $ $ 0 Q W W Q ^ ' ' ' ] ] ] [ [ } ..{  .>.j $ $ j ,.=.2.2.2.2.4.2.8.8.9.5.9.9.9.9.9.9.9.",
"z z l z z z z z z x x x P P x I I U S e # t I Q W W Q ^ Q ' ' ] ] ] ] [ } ..X.X.o.X.a # * $.7.>.2.2.6.2.6.8.8.5.5.9.9.9.9.9.9.q.",
"l z z z z z z z z P x P P I P I I L 6 % & N Q U W ^ W Q ' ' ] ] ] ] | | } ..X.X.X.>./ * $ i { 2.2.2.4.2.2.5.8.5.9.9.9.9.9.q.9.9.",
"z l z z z z z z x z z x x x I I U n & $ : R U Q U Q W ^ ' ' ' ] ] ] ] | } ..X. .X.X.6.+.$ # h 6.-.2.2.5.2.5.5.5.1.9.9.9.9.9.9.9.",
"z l z z z z z z z x P P x I I T A : $ r Z Q U W W W Q Q Q ' ' ' ] ] ] | ....{ X.X.X.o.>.d r #.2.2.6.2.5.5.8.5.5.9.9.9.9.9.9.9.q.",
"z l z z z z z z z z x P x I L L 0 % % 9 Q U U W U W ^ ^ ' ' ] ] ] ] | | ......X.X.,.7.7.-.=.0.0.7.0.0.0.0.q.q.q.q.w.w.w.9.9.9.9.",
"z z z z z z z z z I z I z I T C * # u T U U W W W W W W ' ' ' ] ] ] | | } .. .X.( 7 < 2 2 2 2 < 2 5 2 2 2 2 5 2 d 6 9 &.9.9.9.9.",
"z l l z z z z z z x I z z I L : $ & n T U U U U W W W Q ' ' Q ] ] ] | | } } X.>.2 . . . . .     .     . . . . . . . . 2 w.9.9.q.",
"z z l z z z z z K z x z I I q $ % 4 T T U E W E W W Q ^ ' ' ( ] ] ] ] | } }  .,.<   . . . . . . . . . . . . . . . . . 3 w.q.9.9.",
"l z z z z z z z z z x I K L 9 & e A T U U U U W W W W Q Q ' ] ' ] ] ] | } X.{ ,.< . . . . . . . . . . . . . . . . .   2 w.9.9.9.",
"z z z z z z z L L L L L R L L Z n Q R R Q Q W R W W ^ ^ Q ' ' ' ] ] | [ | | } ,.<   . . . . . . . . . . . . . . . . . 3 w.9.9.9.",
"z z z z l > > > > > > , , , 8 , , 8 8 8 8 8 c E U Q Q Q ' ' ] ] ] ] ] | } } } ,.< . . . . . . . . . . . . . . . . . . 2 w.9.9.9.",
"l z z z -       . . . . . . . .     . . . . . 1 _ ^ ^ Q ' ' ' ] ] | ] ] | }  .<.<   . . . . . . . . . . . . . . . . . 6 w.9.q.9.",
"z z z L =       . . . . . . . . . . . . . . . ; _ Q Q ^ ' ' ' ] ] ] | [ { } } <.<   . . . . . . . . . . . . . . . . . d w.9.9.9.",
"z z z z =     . . . . . . . . . . . . . . . . ; ` W W W ' ' ] ] ] ] ] } } } } <.<   . . . . . . . . . . . . . . . .   < w.9.9.9.",
"l z z z =   . . . . . . . . . . . . . . . . . ; ` W W Q Q ' ' ] ] ] | ]  .}  .<.< . . . . . . . . . . . . . . . . . . 3 w.9.9.q.",
"z z z z =       . . . . . . . . . . . . . . . ; ` W W ' ' ' ] ' ] ] { | } }  .<.<   . . . . . . . . . . . . . . . . . 3 w.q.9.9.",
"z z z L =       . . . . . . . . . . . . . . . ; _ W ^ Q ' Q ' ] ] ] ] } } } } 2.b O o o o o o o o o o o o o o o o o o V w.9.9.9.",
"z z z z - e.    . . . . . . . . . . . . . . . ; ` W W ' ' ] ' ] ] ] | | | }  . .X.} { { { { &.{ X.=.=.=.=.=.2.-.-.-.4.9.9.9.9.9.",
"z z z z =       . . . . . . . . . . . . . . . ; _ W W ' ^ Q ' ] ] ] ] | }  .{ X.X.X.X.2.2.,.2.6.6.8.8.5.9.5.9.7.9.9.9.9.9.9.9.9.",
"z z z z =       . . . . . . . . . . . . . . . ; ` W Q W Q ' ' ] ] ] ] } } } X.X.X.X.X.=.2.=.2.X.2.2.2.2.3.8.8.8.9.9.9.9.9.9.9.9.",
"z z l z =       . . . . . . . . . . . . . . . - _ W W Q ' ] ] ' ] ] ] } } } } X.X.X.X.o.X.X.2.2.>.2.2.2.2.8.8.8.9.9.9.9.9.9.w.9.",
"l l z L -   X X X X X X X X X X X X X X X X X 1 ` W W ' ^ _ Q ] ] ] ] } } .. .X.X.X.X.=.>.1.2.2.2.2.2.2.5.4.4.9.9.9.9.9.9.9.9.9.",
"z z z z z l l l l l l C l C C z C A A A C A S U W W W W Q ^ ] ' ] ] ] } ....{ X.X.X.X.1.X.2.X.2.2.2.2.4.4.4.4.4.9.9.9.9.9.9.9.9.",
"z z z z z z z x z L I L L I L I T T T U U W R W W W ^ Q ' ' ] ] ] | ] ] ....X.X.X.X.X.o.=.>.2.2.2.2.2.4.4.4.9.4.9.4.9.9.9.9.9.9.",
"l z z z z z z z z z z K P L I I I I T U U U W W W W W Q ' ' ' ' ] ] | [ ..{  ...X.X.;.X.>.=.X.2.2.2.4.2.4.5.4.9.9.9.9.9.9.9.9.9.",
"e.z z l z z z z z z z x I I I P I T Y I E E U W E W W ^ _ ' ] ] ] ] | ] ..} X.{  .=.X.X.=.>.X.2.2.2.2.2.4.4.9.4.9.9.9.9.w.9.9.e.",
"e.e.z z z z z z x x P x z I P I I I T T I E E E W W W Q ^ W ' ] ] ] ] { }  .X. .X.X.X.2.;.;.2.2.;.2.2.2.4.4.4.9.9.9.9.9.9.9.e.e.",
"e.e.e.z z z z x z x P P P I P I I I Y U E E U W W W W ^ ) ] ' ] ] ] ] } } } { X.X.X.X.;.X.2.X.2.2.2.2.2.4.9.9.4.9.9.9.9.9.e.e.e.",
"e.e.e.e.z z z z z z z x x P P I I I I U E E W W W W W Q ' ' ' ] ] ] ] } } } X. .X.;.X.X.;.o.2.4.2.2.2.2.4.4.4.4.9.9.9.9.e.e.e.e."
};
